<svg width="20" height="16" viewBox="0 0 20 16" fill="none" xmlns="http://www.w3.org/2000/svg">
<path d="M19.8879 1.85558C19.1421 2.18546 18.3548 2.39164 17.5262 2.51534C18.3548 2.02052 19.0178 1.23705 19.3078 0.288646C18.5206 0.742233 17.6505 1.07211 16.6975 1.27829C15.9517 0.494822 14.8745 0 13.7143 0C11.4769 0 9.6539 1.81435 9.6539 4.04104C9.6539 4.37093 9.69533 4.65957 9.7782 4.94822C6.42212 4.78328 3.39751 3.17511 1.36729 0.700998C1.03583 1.31953 0.828661 1.97929 0.828661 2.72152C0.828661 4.12352 1.53302 5.36057 2.65171 6.1028C1.98879 6.06157 1.36729 5.89663 0.787228 5.60798V5.64922C0.787228 7.6285 2.19595 9.27791 4.06044 9.64903C3.72897 9.7315 3.35608 9.77273 2.98318 9.77273C2.73458 9.77273 2.44455 9.7315 2.19595 9.69026C2.73458 11.2984 4.22617 12.4943 6.00779 12.4943C4.59907 13.5664 2.85888 14.2261 0.95296 14.2261C0.621495 14.2261 0.290031 14.2261 0 14.1849C1.82305 15.3395 3.93614 15.9992 6.25639 15.9992C13.7558 15.9992 17.8576 9.81397 17.8576 4.4534C17.8576 4.28846 17.8576 4.08228 17.8576 3.91734C18.6449 3.38128 19.3492 2.68029 19.8879 1.85558Z" fill="#131318"/>
</svg>
