<svg width="25" height="24" viewBox="0 0 25 24" fill="none" xmlns="http://www.w3.org/2000/svg">
<path d="M12.057 2.16218C15.2762 2.16218 15.6575 2.17418 16.9292 2.23189C17.6938 2.24121 18.4512 2.38094 19.1684 2.64502C19.6884 2.84463 20.1608 3.15042 20.5549 3.54269C20.9491 3.93496 21.2563 4.40502 21.4569 4.92262C21.7222 5.63637 21.8626 6.39011 21.872 7.15109C21.9294 8.41674 21.9421 8.79615 21.9421 12C21.9421 15.2038 21.93 15.5833 21.872 16.8489C21.8626 17.6099 21.7222 18.3636 21.4569 19.0774C21.2563 19.595 20.9491 20.065 20.5549 20.4573C20.1608 20.8496 19.6884 21.1554 19.1684 21.355C18.4512 21.6191 17.6938 21.7588 16.9292 21.7681C15.658 21.8252 15.2768 21.8378 12.057 21.8378C8.83722 21.8378 8.45599 21.8258 7.18484 21.7681C6.42021 21.7588 5.66285 21.6191 4.94568 21.355C4.4256 21.1554 3.95328 20.8496 3.55912 20.4573C3.16497 20.065 2.85772 19.595 2.65714 19.0774C2.3918 18.3636 2.2514 17.6099 2.24204 16.8489C2.18462 15.5833 2.17199 15.2038 2.17199 12C2.17199 8.79615 2.18405 8.41674 2.24204 7.15109C2.2514 6.39011 2.3918 5.63637 2.65714 4.92262C2.85772 4.40502 3.16497 3.93496 3.55912 3.54269C3.95328 3.15042 4.4256 2.84463 4.94568 2.64502C5.66285 2.38094 6.42021 2.24121 7.18484 2.23189C8.45657 2.17475 8.8378 2.16218 12.057 2.16218ZM12.057 0C8.7844 0 8.37217 0.0137136 7.08609 0.0719965C6.08538 0.0918058 5.0953 0.280376 4.15795 0.629684C3.35386 0.931193 2.62556 1.40368 2.02386 2.01419C1.40987 2.61323 0.93471 3.33847 0.631565 4.13923C0.28058 5.0721 0.0911058 6.05745 0.0712015 7.05338C0.0137871 8.33217 7.62939e-06 8.74244 7.62939e-06 11.9994C7.62939e-06 15.2564 0.013787 15.6667 0.0723497 16.9466C0.092254 17.9425 0.281729 18.9279 0.632714 19.8608C0.935522 20.6614 1.41029 21.3867 2.02386 21.9858C2.62589 22.5965 3.3546 23.069 4.1591 23.3703C5.09645 23.7196 6.08653 23.9082 7.08724 23.928C8.37332 23.9851 8.78383 24 12.0582 24C15.3325 24 15.743 23.9863 17.0291 23.928C18.0298 23.9082 19.0199 23.7196 19.9572 23.3703C20.7579 23.0614 21.485 22.5896 22.092 21.9851C22.6991 21.3806 23.1726 20.6567 23.4825 19.8596C23.8335 18.9268 24.0229 17.9414 24.0428 16.9455C24.1003 15.6667 24.114 15.2564 24.114 11.9994C24.114 8.74244 24.1003 8.33217 24.0417 7.05224C24.0218 6.05631 23.8323 5.07096 23.4813 4.13809C23.1785 3.33743 22.7038 2.6122 22.0902 2.01305C21.4881 1.4024 20.7594 0.929903 19.9549 0.628541C19.0176 0.279233 18.0275 0.0906631 17.0268 0.0708538C15.7419 0.0137137 15.3296 0 12.057 0Z" fill="#131318"/>
<path d="M12.0548 5.83789C10.8303 5.83789 9.63319 6.19929 8.61499 6.87637C7.59679 7.55346 6.8032 8.51583 6.33458 9.64179C5.86595 10.7677 5.74334 12.0067 5.98224 13.202C6.22114 14.3973 6.81083 15.4953 7.67674 16.3571C8.54265 17.2188 9.64588 17.8057 10.8469 18.0435C12.048 18.2812 13.2929 18.1592 14.4242 17.6928C15.5556 17.2264 16.5226 16.4366 17.2029 15.4233C17.8833 14.41 18.2464 13.2186 18.2464 11.9999C18.2464 10.3656 17.5941 8.7983 16.4329 7.6427C15.2718 6.4871 13.6969 5.83789 12.0548 5.83789ZM12.0548 15.9997C11.26 15.9997 10.4829 15.7651 9.822 15.3256C9.16107 14.8861 8.64595 14.2614 8.34176 13.5305C8.03757 12.7997 7.95798 11.9954 8.11306 11.2196C8.26813 10.4437 8.6509 9.73097 9.21297 9.17159C9.77504 8.61221 10.4912 8.23126 11.2708 8.07693C12.0504 7.9226 12.8585 8.0018 13.5928 8.30454C14.3272 8.60728 14.9549 9.11994 15.3965 9.77771C15.8381 10.4355 16.0738 11.2088 16.0738 11.9999C16.0738 13.0607 15.6504 14.0781 14.8967 14.8282C14.143 15.5783 13.1207 15.9997 12.0548 15.9997Z" fill="#131318"/>
<path d="M18.4919 7.03416C19.291 7.03416 19.9387 6.38948 19.9387 5.59423C19.9387 4.79898 19.291 4.1543 18.4919 4.1543C17.6928 4.1543 17.045 4.79898 17.045 5.59423C17.045 6.38948 17.6928 7.03416 18.4919 7.03416Z" fill="#131318"/>
</svg>
