<svg width="24" height="23" viewBox="0 0 24 23" fill="none" xmlns="http://www.w3.org/2000/svg">
<path fill-rule="evenodd" clip-rule="evenodd" d="M11.5332 0C5.14189 0 0 5.11733 0 11.4781C0 16.5476 3.3158 20.8519 7.88103 22.3823C8.45769 22.478 8.64991 22.1432 8.64991 21.8084C8.64991 21.5215 8.64991 20.8041 8.64991 19.8476C5.43022 20.565 4.75745 18.3172 4.75745 18.3172C4.22884 16.9781 3.45996 16.6433 3.45996 16.6433C2.40275 15.9259 3.55607 15.9259 3.55607 15.9259C4.70939 16.0216 5.33411 17.1215 5.33411 17.1215C6.34327 18.8911 8.02519 18.365 8.69796 18.0781C8.79407 17.3128 9.0824 16.8346 9.41879 16.5476C6.87187 16.2607 4.18079 15.2563 4.18079 10.8564C4.18079 9.61293 4.61328 8.56077 5.38216 7.79556C5.28605 7.50861 4.85356 6.3608 5.47827 4.73473C5.47827 4.73473 6.43937 4.44777 8.64991 5.93037C9.56295 5.69124 10.5721 5.54776 11.5332 5.54776C12.4943 5.54776 13.5035 5.69124 14.4165 5.93037C16.627 4.44777 17.5881 4.73473 17.5881 4.73473C18.2129 6.31297 17.8284 7.46078 17.6843 7.79556C18.4051 8.60859 18.8856 9.61293 18.8856 10.8564C18.8856 15.2563 16.1945 16.2129 13.5996 16.4998C14.0321 16.8346 14.3685 17.552 14.3685 18.6041C14.3685 20.1345 14.3685 21.378 14.3685 21.7606C14.3685 22.0476 14.5607 22.4302 15.1854 22.3345C19.7506 20.8519 23.0664 16.5476 23.0664 11.4781C23.0664 5.11733 17.9245 0 11.5332 0Z" fill="#131318"/>
</svg>
